<svg width="37" height="36" viewBox="0 0 37 36" fill="none" xmlns="http://www.w3.org/2000/svg">
<path d="M7.40871 15.0985L10.3627 10.0792L15.5192 7.15267H21.4796L26.6535 10.0452L29.6425 15.0985L29.625 20.8835L26.6186 25.9028L21.4621 28.7783H15.5366L10.3977 25.8688L7.42619 20.8665L7.40871 15.0985Z" fill="#030924"/>
<path d="M28.4206 9.71123L31.3555 10.7929L30.8383 13.7887L28.4206 9.71123Z" fill="#030924"/>
<path d="M31.3555 10.0245V5.94463L28.2498 8.97195L31.3555 10.0245Z" fill="#030924"/>
<path d="M26.7281 5.50225H30.8311L27.7771 8.46848L26.7281 5.50225Z" fill="#030924"/>
<path d="M22.8451 6.00871L25.9207 5.50225L27.0123 8.3511L22.8451 6.00871Z" fill="#030924"/>
<path d="M25.5168 4.82166L23.4414 1.32394L22.3103 5.43247L25.5168 4.82166Z" fill="#030924"/>
<path d="M19.1744 3.17874L22.7556 1.16612L21.6375 5.2451L19.1744 3.17874Z" fill="#030924"/>
<path d="M16.0575 5.50224L18.4908 3.56295L20.9313 5.50224H16.0575Z" fill="#030924"/>
<path d="M14.2243 1.1652L17.8071 3.17874L15.3454 5.2512L14.2243 1.1652Z" fill="#030924"/>
<path d="M11.491 4.82166L13.5506 1.35068L14.675 5.43101L11.491 4.82166Z" fill="#030924"/>
<path d="M10.0054 8.33142L11.0872 5.50225L14.1415 6.00724L14.146 6.00797L10.0054 8.33142Z" fill="#030924"/>
<path d="M6.15019 5.50225H10.2798L9.22599 8.49164L6.15019 5.50225Z" fill="#030924"/>
<path d="M5.66077 10.005V5.97866L8.72604 8.96537L5.66077 10.005Z" fill="#030924"/>
<path d="M8.5997 9.68966L5.66077 10.7734L6.17735 13.7769L7.54801 11.4669L8.5997 9.68966Z" fill="#030924"/>
<path d="M1.37448 13.1823L4.96159 11.1663L5.58502 14.2781L1.37448 13.1823Z" fill="#030924"/>
<path d="M3.26388 17.3263L1.19599 13.8412L5.40843 14.9372L3.26388 17.3263Z" fill="#030924"/>
<path d="M5.66077 20.3631L3.66759 18.0066L5.66077 15.6613V20.3631Z" fill="#030924"/>
<path d="M4.96159 24.831L1.35481 22.804L5.59439 21.7005L4.96159 24.831Z" fill="#030924"/>
<path d="M6.17768 22.2414L5.66077 25.224L8.59035 26.303L7.35669 24.2239L6.17768 22.2414Z" fill="#030924"/>
<path d="M1.2188 22.1336L3.26388 18.687L5.38036 21.058L1.2188 22.1336Z" fill="#030924"/>
<path d="M5.66077 30.0033L5.66077 25.9924L8.71507 27.0267L5.66077 30.0033Z" fill="#030924"/>
<path d="M14.1731 30.0079L10.0013 27.6626L11.0888 30.5138L14.1731 30.0079Z" fill="#030924"/>
<path fill-rule="evenodd" clip-rule="evenodd" d="M34.14 17.9937L36.9898 13.1909L32.0547 10.4174V4.82166H26.3243L23.4633 0L18.4908 2.79453L13.538 0.0110762L10.6836 4.82166H4.96159V10.3979L0 13.1863L2.86017 18.0066L0.00707024 22.815L4.96159 25.5994V31.1943H10.6852L13.5367 36L18.5023 33.2093L23.4588 35.9949L26.3073 31.1943H32.0547V25.5929L37 22.8137L34.14 17.9937ZM10.3627 10.0792L7.40871 15.0985L7.42619 20.8665L10.3977 25.8688L15.5366 28.7783H21.4621L26.6186 25.9028L29.625 20.8835L29.6425 15.0985L26.6535 10.0452L21.4796 7.15267H15.5192L10.3627 10.0792ZM30.8311 5.50225H26.7281L27.7771 8.46848L30.8311 5.50225ZM31.3555 5.94463V10.0245L28.2498 8.97195L31.3555 5.94463ZM35.6124 13.1853L32.0547 11.1858L31.4337 14.272L35.6124 13.1853ZM33.7363 17.3133L35.7962 13.8417L31.5997 14.9329L33.7363 17.3133ZM31.3555 30.0373V25.9859L28.2768 27.032L31.3555 30.0373ZM26.7111 30.5138H30.8661L27.7728 27.5069L26.7111 30.5138ZM35.7923 22.139L33.7363 18.6741L31.6032 21.05L35.7923 22.139ZM32.0547 24.8245L35.6461 22.8061L31.4322 21.7096L32.0547 24.8245ZM22.7667 34.8375L19.186 32.8251L21.6499 30.7528L22.7667 34.8375ZM25.4998 31.1943L23.4429 34.661L22.3207 30.5875L25.4998 31.1943ZM11.4927 31.1943L13.546 34.6549L14.6636 30.5931L11.4927 31.1943ZM14.2168 34.8494L17.8187 32.8251L15.3515 30.7412L14.2168 34.8494ZM5.66077 25.9924L5.66077 30.0033L8.71507 27.0267L5.66077 25.9924ZM10.2814 30.5138H6.11523L9.22019 27.4957L10.2814 30.5138ZM3.26388 18.687L1.2188 22.1336L5.38036 21.058L3.26388 18.687ZM1.35481 22.804L4.96159 24.831L5.59439 21.7005L1.35481 22.804ZM4.96159 11.1663L1.37448 13.1823L5.58502 14.2781L4.96159 11.1663ZM1.19599 13.8412L3.26388 17.3263L5.40843 14.9372L1.19599 13.8412ZM5.66077 5.97866V10.005L8.72604 8.96537L5.66077 5.97866ZM10.2798 5.50225H6.15019L9.22599 8.49164L10.2798 5.50225ZM13.5506 1.35068L11.491 4.82166L14.675 5.43101L13.5506 1.35068ZM17.8071 3.17874L14.2243 1.1652L15.3454 5.2512L17.8071 3.17874ZM22.7556 1.16612L19.1744 3.17874L21.6375 5.2451L22.7556 1.16612ZM23.4414 1.32394L25.5168 4.82166L22.3103 5.43247L23.4414 1.32394ZM11.0872 5.50225L10.0054 8.33142L14.146 6.00797L14.1415 6.00724L11.0872 5.50225ZM18.4908 3.56295L16.0575 5.50224H20.9313L18.4908 3.56295ZM25.9207 5.50225L22.8451 6.00871L27.0123 8.3511L25.9207 5.50225ZM31.3555 10.7929L28.4206 9.71123L30.8383 13.7887L31.3555 10.7929ZM33.3326 17.9937L31.3555 15.6663V20.3206L33.3326 17.9937ZM31.3555 25.2175L30.8375 22.1993L28.4008 26.3082L31.3555 25.2175ZM18.5023 32.4409L20.9229 30.5138H16.0903L18.5023 32.4409ZM22.8344 30.0075L25.9037 30.5138L26.9924 27.6692L26.1325 28.1528L22.8344 30.0075ZM10.0013 27.6626L14.179 30.0069L14.1731 30.0079L11.0888 30.5138L10.0013 27.6626ZM5.66077 25.224L6.17768 22.2414L7.35669 24.2239L8.59389 26.3043L8.59035 26.303L5.66077 25.224ZM3.66759 18.0066L5.66077 20.3631V15.6613L3.66759 18.0066ZM5.66077 10.7734L8.5997 9.68966L7.54801 11.4669L6.17818 13.7817L6.17735 13.7769L5.66077 10.7734Z" fill="#030924"/>
<path d="M6.11523 30.5138H10.2814L9.22019 27.4957L6.11523 30.5138Z" fill="#030924"/>
<path d="M13.546 34.6549L11.4927 31.1943L14.6636 30.5931L13.546 34.6549Z" fill="#030924"/>
<path d="M17.8187 32.8251L14.2168 34.8494L15.3515 30.7412L17.8187 32.8251Z" fill="#030924"/>
<path d="M20.9229 30.5138L18.5023 32.4409L16.0903 30.5138H20.9229Z" fill="#030924"/>
<path d="M19.186 32.8251L22.7667 34.8375L21.6499 30.7528L19.186 32.8251Z" fill="#030924"/>
<path d="M23.4429 34.661L25.4998 31.1943L22.3207 30.5875L23.4429 34.661Z" fill="#030924"/>
<path d="M25.9037 30.5138L22.8344 30.0075L26.1325 28.1528L26.9924 27.6692L25.9037 30.5138Z" fill="#030924"/>
<path d="M30.8661 30.5138H26.7111L27.7728 27.5069L30.8661 30.5138Z" fill="#030924"/>
<path d="M31.3555 25.9859V30.0373L28.2768 27.032L31.3555 25.9859Z" fill="#030924"/>
<path d="M30.8375 22.1993L31.3555 25.2175L28.4008 26.3082L30.8375 22.1993Z" fill="#030924"/>
<path d="M35.6461 22.8061L32.0547 24.8245L31.4322 21.7096L35.6461 22.8061Z" fill="#030924"/>
<path d="M32.0547 11.1858L35.6124 13.1853L31.4337 14.272L32.0547 11.1858Z" fill="#030924"/>
<path d="M35.7962 13.8417L33.7363 17.3133L31.5997 14.9329L35.7962 13.8417Z" fill="#030924"/>
<path d="M31.3555 15.6663L33.3326 17.9937L31.3555 20.3206V15.6663Z" fill="#030924"/>
<path d="M33.7363 18.6741L35.7923 22.139L31.6032 21.05L33.7363 18.6741Z" fill="#030924"/>
</svg>
