<svg width="29" height="28" viewBox="0 0 29 28" fill="none" xmlns="http://www.w3.org/2000/svg">
<path d="M5.80683 11.7433L8.12214 7.83937L12.1637 5.56319H16.8354L20.8906 7.8129L23.2333 11.7433L23.2196 16.2427L20.8632 20.1466L16.8217 22.3831H12.1774L8.14954 20.1202L5.82052 16.2295L5.80683 11.7433Z" fill="#C49848"/>
<path d="M22.2756 7.55318L24.5759 8.39447L24.1706 10.7245L22.2756 7.55318Z" fill="#C49848"/>
<path d="M24.5759 7.79681V4.6236L22.1418 6.97819L24.5759 7.79681Z" fill="#C49848"/>
<path d="M20.949 4.27953H24.1649L21.7712 6.5866L20.949 4.27953Z" fill="#C49848"/>
<path d="M17.9056 4.67344L20.3162 4.27953L21.1718 6.4953L17.9056 4.67344Z" fill="#C49848"/>
<path d="M19.9997 3.75018L18.373 1.02973L17.4865 4.22525L19.9997 3.75018Z" fill="#C49848"/>
<path d="M15.0286 2.47235L17.8355 0.906983L16.9591 4.07952L15.0286 2.47235Z" fill="#C49848"/>
<path d="M12.5856 4.27952L14.4928 2.77118L16.4056 4.27952H12.5856Z" fill="#C49848"/>
<path d="M11.1488 0.906269L13.957 2.47235L12.0275 4.08427L11.1488 0.906269Z" fill="#C49848"/>
<path d="M9.00648 3.75018L10.6207 1.05053L11.502 4.22412L9.00648 3.75018Z" fill="#C49848"/>
<path d="M7.84206 6.47999L8.68997 4.27953L11.0839 4.6723L11.0874 4.67287L7.84206 6.47999Z" fill="#C49848"/>
<path d="M4.82042 4.27953H8.05712L7.23118 6.60461L4.82042 4.27953Z" fill="#C49848"/>
<path d="M4.43682 7.78166V4.65007L6.83933 6.97307L4.43682 7.78166Z" fill="#C49848"/>
<path d="M6.74031 7.53641L4.43682 8.37932L4.8417 10.7154L5.91601 8.9187L6.74031 7.53641Z" fill="#C49848"/>
<path d="M1.07729 10.2529L3.88881 8.68494L4.37745 11.1052L1.07729 10.2529Z" fill="#C49848"/>
<path d="M2.55818 13.476L0.937396 10.7654L4.23904 11.6178L2.55818 13.476Z" fill="#C49848"/>
<path d="M4.43682 15.838L2.8746 14.0052L4.43682 12.181V15.838Z" fill="#C49848"/>
<path d="M3.88881 19.313L1.06187 17.7365L4.38479 16.8782L3.88881 19.313Z" fill="#C49848"/>
<path d="M4.84197 17.2988L4.43682 19.6186L6.73297 20.4579L5.76606 18.8408L4.84197 17.2988Z" fill="#C49848"/>
<path d="M0.955274 17.215L2.55818 14.5343L4.21704 16.3785L0.955274 17.215Z" fill="#C49848"/>
<path d="M4.43682 23.3359L4.43682 20.2163L6.83073 21.0208L4.43682 23.3359Z" fill="#C49848"/>
<path d="M11.1087 23.3395L7.83885 21.5153L8.69124 23.7329L11.1087 23.3395Z" fill="#C49848"/>
<path fill-rule="evenodd" clip-rule="evenodd" d="M26.7584 13.9951L28.992 10.2596L25.1239 8.10243V3.75018H20.6325L18.3901 0L14.4928 2.17352L10.6109 0.00861479L8.37364 3.75018H3.88881V8.08728L0 10.256L2.24176 14.0052L0.00554154 17.745L3.88881 19.9107V24.2623H8.37491L10.6099 28L14.5018 25.8295L18.3866 27.996L20.6192 24.2623H25.1239V19.9056L29 17.744L26.7584 13.9951ZM8.12214 7.83937L5.80683 11.7433L5.82052 16.2295L8.14954 20.1202L12.1774 22.3831H16.8217L20.8632 20.1466L23.2196 16.2427L23.2333 11.7433L20.8906 7.8129L16.8354 5.56319H12.1637L8.12214 7.83937ZM24.1649 4.27953H20.949L21.7712 6.5866L24.1649 4.27953ZM24.5759 4.6236V7.79681L22.1418 6.97819L24.5759 4.6236ZM27.9124 10.2552L25.1239 8.70009L24.6372 11.1004L27.9124 10.2552ZM26.442 13.4659L28.0565 10.7657L24.7673 11.6145L26.442 13.4659ZM24.5759 23.3624V20.2112L22.1629 21.0249L24.5759 23.3624ZM20.9357 23.7329H24.1923L21.7678 21.3942L20.9357 23.7329ZM28.0534 17.2192L26.442 14.5243L24.7701 16.3722L28.0534 17.2192ZM25.1239 19.308L27.9388 17.7381L24.636 16.8852L25.1239 19.308ZM17.8442 27.0958L15.0377 25.5307L16.9688 23.9188L17.8442 27.0958ZM19.9864 24.2623L18.3742 26.9585L17.4946 23.7903L19.9864 24.2623ZM9.00776 24.2623L10.6171 26.9538L11.4931 23.7946L9.00776 24.2623ZM11.1429 27.1051L13.966 25.5307L12.0322 23.9098L11.1429 27.1051ZM4.43682 20.2163L4.43682 23.3359L6.83073 21.0208L4.43682 20.2163ZM8.0584 23.7329H4.79302L7.22663 21.3855L8.0584 23.7329ZM2.55818 14.5343L0.955274 17.215L4.21704 16.3785L2.55818 14.5343ZM1.06187 17.7365L3.88881 19.313L4.38479 16.8782L1.06187 17.7365ZM3.88881 8.68494L1.07729 10.2529L4.37745 11.1052L3.88881 8.68494ZM0.937396 10.7654L2.55818 13.476L4.23904 11.6178L0.937396 10.7654ZM4.43682 4.65007V7.78166L6.83933 6.97307L4.43682 4.65007ZM8.05712 4.27953H4.82042L7.23118 6.60461L8.05712 4.27953ZM10.6207 1.05053L9.00648 3.75018L11.502 4.22412L10.6207 1.05053ZM13.957 2.47235L11.1488 0.906269L12.0275 4.08427L13.957 2.47235ZM17.8355 0.906983L15.0286 2.47235L16.9591 4.07952L17.8355 0.906983ZM18.373 1.02973L19.9997 3.75018L17.4865 4.22525L18.373 1.02973ZM8.68997 4.27953L7.84206 6.47999L11.0874 4.67287L11.0839 4.6723L8.68997 4.27953ZM14.4928 2.77118L12.5856 4.27952H16.4056L14.4928 2.77118ZM20.3162 4.27953L17.9056 4.67344L21.1718 6.4953L20.3162 4.27953ZM24.5759 8.39447L22.2756 7.55318L24.1706 10.7245L24.5759 8.39447ZM26.1255 13.9951L24.5759 12.1849V15.8049L26.1255 13.9951ZM24.5759 19.6136L24.1699 17.2661L22.2601 20.462L24.5759 19.6136ZM14.5018 25.2318L16.3991 23.7329H12.6113L14.5018 25.2318ZM17.8972 23.3391L20.3029 23.7329L21.1562 21.5205L20.4822 21.8966L17.8972 23.3391ZM7.83885 21.5153L11.1133 23.3387L11.1087 23.3395L8.69124 23.7329L7.83885 21.5153ZM4.43682 19.6186L4.84197 17.2988L5.76606 18.8408L6.73575 20.4589L6.73297 20.4579L4.43682 19.6186ZM2.8746 14.0052L4.43682 15.838V12.181L2.8746 14.0052ZM4.43682 8.37932L6.74031 7.53641L5.91601 8.9187L4.84236 10.7191L4.8417 10.7154L4.43682 8.37932Z" fill="#C49848"/>
<path d="M4.79302 23.7329H8.0584L7.22663 21.3855L4.79302 23.7329Z" fill="#C49848"/>
<path d="M10.6171 26.9538L9.00776 24.2623L11.4931 23.7946L10.6171 26.9538Z" fill="#C49848"/>
<path d="M13.966 25.5307L11.1429 27.1051L12.0322 23.9098L13.966 25.5307Z" fill="#C49848"/>
<path d="M16.3991 23.7329L14.5018 25.2318L12.6113 23.7329H16.3991Z" fill="#C49848"/>
<path d="M15.0377 25.5307L17.8442 27.0958L16.9688 23.9188L15.0377 25.5307Z" fill="#C49848"/>
<path d="M18.3742 26.9585L19.9864 24.2623L17.4946 23.7903L18.3742 26.9585Z" fill="#C49848"/>
<path d="M20.3029 23.7329L17.8972 23.3391L20.4822 21.8966L21.1562 21.5205L20.3029 23.7329Z" fill="#C49848"/>
<path d="M24.1923 23.7329H20.9357L21.7678 21.3942L24.1923 23.7329Z" fill="#C49848"/>
<path d="M24.5759 20.2112V23.3624L22.1629 21.0249L24.5759 20.2112Z" fill="#C49848"/>
<path d="M24.1699 17.2661L24.5759 19.6136L22.2601 20.462L24.1699 17.2661Z" fill="#C49848"/>
<path d="M27.9388 17.7381L25.1239 19.308L24.636 16.8852L27.9388 17.7381Z" fill="#C49848"/>
<path d="M25.1239 8.70009L27.9124 10.2552L24.6372 11.1004L25.1239 8.70009Z" fill="#C49848"/>
<path d="M28.0565 10.7657L26.442 13.4659L24.7673 11.6145L28.0565 10.7657Z" fill="#C49848"/>
<path d="M24.5759 12.1849L26.1255 13.9951L24.5759 15.8049V12.1849Z" fill="#C49848"/>
<path d="M26.442 14.5243L28.0534 17.2192L24.7701 16.3722L26.442 14.5243Z" fill="#C49848"/>
</svg>
