<svg width="345" height="455" viewBox="0 0 345 455" fill="none" xmlns="http://www.w3.org/2000/svg">
<path d="M394.042 60.958L455 166.542V288.458L405.85 373.59C406.164 338.097 406.269 302.603 406.16 267.109H271.274C271.163 303.535 271.275 339.962 271.608 376.387C273.055 380.521 275.837 383.314 279.955 384.767C319.13 385.214 358.305 385.214 397.479 384.767C398.421 384.434 399.292 384.031 400.094 383.559L394.042 394.042L288.458 455H166.542L60.958 394.042L0 288.458V166.542L60.958 60.958L166.542 0H288.458L394.042 60.958ZM93.6533 102.859C93.4645 103.388 93.1302 103.835 92.6514 104.2C92.2062 194.929 92.2062 285.658 92.6514 376.387C92.9852 376.722 93.3195 377.056 93.6533 377.392C151.079 377.727 208.506 377.84 265.933 377.728C265.125 373.976 264.68 370.177 264.598 366.33C214.961 366.442 165.325 366.33 115.689 365.995C109.568 365.213 106.118 361.749 105.339 355.604C105.005 271.356 104.894 187.108 105.005 102.859H93.6533ZM374.108 344.877C384.675 344.425 390.685 349.453 392.138 359.961C391.141 369.006 386.133 374.035 377.113 375.046C368.093 374.035 363.085 369.006 362.089 359.961C362.804 352.211 366.811 347.183 374.108 344.877ZM336.046 344.877C346.631 344.445 352.641 349.473 354.075 359.961C352.24 371.609 345.562 376.302 334.043 374.04C324.024 368.667 321.686 360.957 327.031 350.911C329.616 348.116 332.621 346.104 336.046 344.877ZM297.984 344.877C308.569 344.445 314.579 349.473 316.014 359.961C314.205 371.598 307.527 376.291 295.981 374.04C286.048 368.679 283.711 360.969 288.97 350.911C291.547 348.119 294.552 346.107 297.984 344.877ZM347.732 362.308C348.381 353.91 344.486 350.111 336.046 350.911C329.539 354.943 328.427 360.194 332.708 366.665C339.408 370.752 344.416 369.3 347.732 362.308ZM385.794 362.308C386.443 353.91 382.548 350.111 374.108 350.911C367.499 354.908 366.387 360.159 370.77 366.665C377.469 370.753 382.477 369.3 385.794 362.308ZM297.984 350.911C291.478 354.943 290.365 360.195 294.646 366.665C300.202 370.307 304.988 369.525 309.003 364.319C311.346 354.936 307.673 350.467 297.984 350.911ZM113.018 85.4287C112.829 85.9575 112.495 86.4048 112.017 86.7695C111.461 177.302 111.573 267.807 112.351 358.285C112.701 358.749 113.146 359.085 113.686 359.291C163.989 359.626 214.293 359.738 264.598 359.626V345.548C222.083 345.66 179.57 345.547 137.057 345.212C130.876 344.537 127.649 341.074 127.375 334.821C127.041 251.691 126.93 168.559 127.041 85.4287H113.018ZM297.984 309.346C312.544 309.991 317.998 317.366 314.345 331.469C308.044 340.318 300.365 341.77 291.308 335.826C283.988 327.797 284.21 319.977 291.975 312.362C293.936 311.155 295.939 310.15 297.984 309.346ZM336.046 309.346C348.161 309.329 354.06 315.362 353.742 327.446C351.182 335.937 345.505 339.848 336.714 339.179C327.571 336.801 323.452 330.878 324.36 321.413C326.152 315.258 330.048 311.235 336.046 309.346ZM374.108 309.346C386.203 309.31 392.101 315.343 391.804 327.446C389.244 335.937 383.567 339.848 374.775 339.179C365.632 336.801 361.515 330.878 362.423 321.413C364.214 315.257 368.11 311.235 374.108 309.346ZM135.054 63.3047C134.865 63.8337 134.531 64.2807 134.052 64.6455C133.607 155.598 133.607 246.55 134.052 337.503C134.386 337.838 134.72 338.173 135.054 338.508C178.234 338.843 221.416 338.956 264.598 338.844V301.301C255.024 301.413 245.452 301.3 235.884 300.965C232.323 298.954 232.323 296.943 235.884 294.932C245.678 294.708 255.471 294.484 265.265 294.261C264.489 271.627 264.377 248.945 264.931 226.215C266.143 214.271 272.71 207.678 284.63 206.438C300.209 206.102 315.79 205.991 331.372 206.103V119.619C320.219 119.869 309.09 119.533 297.984 118.613C286.967 115.596 279.955 108.558 276.95 97.4961C276.045 86.1207 275.711 74.7233 275.949 63.3047H135.054ZM298.652 315.379C291.754 318.848 290.307 323.989 294.312 330.799C299.168 334.508 303.842 334.284 308.335 330.128C311.953 320.626 308.725 315.709 298.652 315.379ZM347.732 326.776C348.381 318.378 344.486 314.578 336.046 315.379C329.539 319.411 328.427 324.663 332.708 331.134C339.407 335.221 344.416 333.769 347.732 326.776ZM385.794 326.776C386.443 318.378 382.548 314.579 374.108 315.379C367.499 319.376 366.386 324.627 370.77 331.134C377.469 335.221 382.477 333.769 385.794 326.776ZM297.984 273.813C312.544 274.459 317.998 281.834 314.345 295.938C306.623 305.845 298.165 306.515 288.97 297.948C283.575 286.667 286.58 278.622 297.984 273.813ZM336.046 273.813C348.141 273.777 354.04 279.811 353.742 291.915C351.182 300.406 345.505 304.316 336.714 303.646C327.571 301.268 323.452 295.346 324.36 285.881C326.152 279.725 330.048 275.703 336.046 273.813ZM374.108 273.813C386.203 273.777 392.102 279.812 391.804 291.915C389.244 300.406 383.567 304.316 374.775 303.646C365.632 301.268 361.515 295.346 362.423 285.881C364.214 279.725 368.11 275.703 374.108 273.813ZM165.771 294.597C171.562 294.485 177.349 294.596 183.132 294.932C185.666 295.645 186.444 297.321 185.469 299.96C184.756 300.423 183.977 300.758 183.132 300.965C177.345 301.412 171.558 301.412 165.771 300.965C163.236 300.252 162.458 298.576 163.434 295.938C164.303 295.545 165.082 295.099 165.771 294.597ZM199.158 294.597C206.284 294.485 213.407 294.596 220.525 294.932C224.977 296.943 224.977 298.954 220.525 300.965C213.403 301.412 206.281 301.412 199.158 300.965C196.537 300.576 195.535 299.123 196.153 296.607C197.094 295.749 198.096 295.079 199.158 294.597ZM298.652 279.848C291.754 283.317 290.307 288.457 294.312 295.267C299.168 298.976 303.842 298.753 308.335 294.597C311.961 285.113 308.733 280.197 298.652 279.848ZM336.714 279.848C329.816 283.317 328.369 288.457 332.374 295.267C337.23 298.976 341.904 298.753 346.396 294.597C350.014 285.096 346.787 280.179 336.714 279.848ZM385.794 291.244C386.457 282.86 382.561 279.061 374.108 279.848C372.527 280.708 371.08 281.825 369.768 283.199C367.231 287.965 367.788 292.322 371.438 296.272C378.05 299.498 382.836 297.822 385.794 291.244ZM165.771 260.405C169.086 259.866 171.533 260.984 173.115 263.758C172.168 266.098 170.388 267.215 167.773 267.109C163.71 267.39 162.263 265.603 163.434 261.746C164.303 261.354 165.082 260.907 165.771 260.405ZM185.135 260.405C198.936 260.293 212.737 260.405 226.535 260.74C229.069 261.454 229.848 263.13 228.873 265.769C228.161 266.232 227.381 266.567 226.535 266.774C212.735 267.222 198.935 267.222 185.135 266.774C182.513 266.386 181.512 264.933 182.13 262.417C183.071 261.558 184.072 260.887 185.135 260.405ZM245.9 260.405C250.802 260.294 255.699 260.405 260.591 260.74C263.125 261.454 263.903 263.13 262.928 265.769C262.215 266.232 261.436 266.567 260.591 266.774C254.974 267.381 249.409 267.157 243.896 266.104C241.849 263.273 242.517 261.373 245.9 260.405ZM397.479 213.142C358.305 212.806 319.131 212.695 279.955 212.807C275.962 214.471 273.18 217.375 271.608 221.521C271.275 234.48 271.163 247.442 271.274 260.405H406.16C406.272 247.442 406.16 234.48 405.826 221.521C404.379 217.387 401.597 214.594 397.479 213.142ZM287.301 222.862C321.802 222.75 356.302 222.862 390.802 223.197C392.693 223.309 393.695 224.316 393.807 226.215C394.252 234.036 394.252 241.857 393.807 249.679C393.695 251.578 392.693 252.583 390.802 252.695C356.301 253.142 321.801 253.142 287.301 252.695C285.409 252.583 284.407 251.578 284.296 249.679C283.851 241.857 283.851 234.036 284.296 226.215C284.528 224.31 285.53 223.191 287.301 222.862ZM290.64 229.566V246.327H386.795V229.566H290.64ZM229.206 96.8252C260.44 97.6818 280.361 113.102 288.97 143.084C293.388 171.193 283.483 192.534 259.255 207.107C232.337 219.01 208.632 214.43 188.14 193.364C172.417 172.665 170.191 150.541 181.462 126.994C192.448 109.024 208.362 98.967 229.206 96.8252ZM200.827 115.597C200.152 115.036 199.373 114.813 198.49 114.927C192.298 120.591 187.512 127.295 184.134 135.039C177.969 152.347 179.527 168.884 188.808 184.649C203.423 204.143 222.677 211.182 246.568 205.767C268.753 198.423 281.217 183.116 283.962 159.844C266.096 160.167 248.289 159.831 230.542 158.838C220.555 144.482 210.65 130.069 200.827 115.597ZM148.409 102.188C150.914 101.909 152.36 103.026 152.749 105.541C153.194 123.195 153.194 140.849 152.749 158.503C150.746 162.973 148.743 162.973 146.739 158.503C146.294 140.849 146.294 123.195 146.739 105.541C146.984 104.233 147.54 103.115 148.409 102.188ZM270.606 120.96C260.28 131.663 249.818 142.279 239.223 152.805C254.359 153.252 269.494 153.252 284.63 152.805C283.801 142.709 280.572 133.434 274.947 124.982C273.625 123.374 272.178 122.033 270.606 120.96ZM229.874 102.859C224.974 103.374 220.077 104.38 215.184 105.876C211.529 107.151 208.191 108.939 205.168 111.239C213.911 124.712 222.925 138.009 232.211 151.129C243.794 139.611 255.258 127.99 266.601 116.268C256.194 107.046 243.951 102.577 229.874 102.859ZM282.626 66.6572C282.514 76.7157 282.626 86.7717 282.96 96.8252C285.075 105.205 290.305 110.457 298.652 112.58C308.223 113.027 317.794 113.027 327.365 112.58C312.541 97.1384 297.628 81.8309 282.626 66.6572ZM149.076 84.7578C152.584 85.8167 153.585 88.0514 152.081 91.4619C149.086 93.2575 147.195 92.3637 146.405 88.7803C146.697 86.9536 147.587 85.6126 149.076 84.7578Z" fill="url(#paint0_linear_889_102)"/>
<defs>
<linearGradient id="paint0_linear_889_102" x1="0" y1="228.159" x2="314.543" y2="228.159" gradientUnits="userSpaceOnUse">
<stop stop-color="#E8D183" stop-opacity="0"/>
<stop offset="1" stop-color="#E8D183"/>
</linearGradient>
</defs>
</svg>
